<svg width="128" height="132" viewBox="0 0 128 132" fill="none" xmlns="http://www.w3.org/2000/svg">
<path d="M108 1H20C8.95431 1 0 9.95431 0 21V109C0 120.046 8.95431 129 20 129H108C119.046 129 128 120.046 128 109V21C128 9.95431 119.046 1 108 1Z" fill="#F0BC00"/>
<path d="M108 1H20C8.95431 1 0 9.95431 0 21V109C0 120.046 8.95431 129 20 129H108C119.046 129 128 120.046 128 109V21C128 9.95431 119.046 1 108 1Z" fill="#F0BC00"/>
<path d="M86.5586 75.0732L79.4541 75L72.2764 60.9375C70.9824 58.374 69.7739 56.4697 68.6509 55.2246C67.5522 53.9551 66.124 53.0396 64.3662 52.478C62.6328 51.9165 60.228 51.6357 57.1519 51.6357H52.8306V75H46.5684V22.229H52.8306V46.0327H57.1519C60.0327 46.0327 62.3521 45.6665 64.1099 44.9341C65.8677 44.2017 67.3203 43.1152 68.4678 41.6748C69.6152 40.21 70.8359 38.1226 72.1299 35.4126L78.4653 22.2656L85.5698 22.1924L79.4175 34.9365C77.9771 37.9395 76.7197 40.2588 75.6455 41.8945C74.5957 43.5059 73.3018 44.8608 71.7637 45.9595C70.25 47.0581 68.2603 47.9248 65.7944 48.5596C68.0405 49.1211 69.9082 49.9146 71.3975 50.9399C72.9111 51.9409 74.2539 53.2471 75.4258 54.8584C76.5977 56.4453 77.9038 58.6182 79.3442 61.377L86.5586 75.0732Z" fill="black"/>
<path d="M86.5586 75.0732L86.538 77.0731L89.8907 77.1077L88.3281 74.1412L86.5586 75.0732ZM79.4541 75L77.6727 75.9092L78.223 76.9874L79.4335 76.9999L79.4541 75ZM72.2764 60.9375L70.4909 61.8387L70.495 61.8467L72.2764 60.9375ZM68.6509 55.2246L67.1385 56.5334L67.152 56.5489L67.1657 56.5641L68.6509 55.2246ZM64.3662 52.478L63.7499 54.3807L63.7576 54.3832L64.3662 52.478ZM52.8306 51.6357V49.6357H50.8306V51.6357H52.8306ZM52.8306 75V77H54.8306V75H52.8306ZM46.5684 75H44.5684V77H46.5684V75ZM46.5684 22.229V20.229H44.5684V22.229H46.5684ZM52.8306 22.229H54.8306V20.229H52.8306V22.229ZM52.8306 46.0327H50.8306V48.0327H52.8306V46.0327ZM68.4678 41.6748L70.0321 42.921L70.0372 42.9146L70.0422 42.9081L68.4678 41.6748ZM72.1299 35.4126L70.3282 34.5444L70.3251 34.5508L72.1299 35.4126ZM78.4653 22.2656L78.4447 20.2657L77.2028 20.2785L76.6636 21.3974L78.4653 22.2656ZM85.5698 22.1924L87.3709 23.0619L88.7722 20.1593L85.5492 20.1925L85.5698 22.1924ZM79.4175 34.9365L77.6164 34.067L77.6142 34.0715L79.4175 34.9365ZM75.6455 41.8945L73.9738 40.7967L73.9698 40.8028L75.6455 41.8945ZM71.7637 45.9595L70.6012 44.332L70.595 44.3364L70.5889 44.3409L71.7637 45.9595ZM65.7944 48.5596L65.2958 46.6227L65.3094 50.4999L65.7944 48.5596ZM71.3975 50.9399L70.2633 52.5872L70.2787 52.5978L70.2943 52.6082L71.3975 50.9399ZM75.4258 54.8584L73.8083 56.0347L73.8126 56.0406L73.8169 56.0465L75.4258 54.8584ZM79.3442 61.377L77.5713 62.3026L77.5747 62.309L79.3442 61.377ZM86.5792 73.0733L79.4747 73.0001L79.4335 76.9999L86.538 77.0731L86.5792 73.0733ZM81.2355 74.0908L74.0577 60.0283L70.495 61.8467L77.6727 75.9092L81.2355 74.0908ZM74.0618 60.0363C72.736 57.4096 71.4333 55.3233 70.136 53.8851L67.1657 56.5641C68.1146 57.6161 69.2289 59.3385 70.4909 61.8387L74.0618 60.0363ZM70.1632 53.9159C68.8004 52.341 67.0471 51.2349 64.9748 50.5729L63.7576 54.3832C65.2009 54.8442 66.3041 55.5691 67.1385 56.5334L70.1632 53.9159ZM64.9826 50.5754C62.9596 49.92 60.3143 49.6357 57.1519 49.6357V53.6357C60.1418 53.6357 62.306 53.913 63.7499 54.3807L64.9826 50.5754ZM57.1519 49.6357H52.8306V53.6357H57.1519V49.6357ZM50.8306 51.6357V75H54.8306V51.6357H50.8306ZM52.8306 73H46.5684V77H52.8306V73ZM48.5684 75V22.229H44.5684V75H48.5684ZM46.5684 24.229H52.8306V20.229H46.5684V24.229ZM50.8306 22.229V46.0327H54.8306V22.229H50.8306ZM52.8306 48.0327H57.1519V44.0327H52.8306V48.0327ZM57.1519 48.0327C60.1745 48.0327 62.7856 47.6525 64.8791 46.7802L63.3406 43.0879C61.9185 43.6805 59.8909 44.0327 57.1519 44.0327V48.0327ZM64.8791 46.7802C66.9373 45.9227 68.6671 44.6344 70.0321 42.921L66.9035 40.4286C65.9735 41.596 64.7981 42.4807 63.3406 43.0879L64.8791 46.7802ZM70.0422 42.9081C71.3175 41.2801 72.6111 39.0464 73.9347 36.2744L70.3251 34.5508C69.0608 37.1987 67.913 39.1398 66.8933 40.4415L70.0422 42.9081ZM73.9316 36.2808L80.267 23.1339L76.6636 21.3974L70.3282 34.5444L73.9316 36.2808ZM78.4859 24.2655L85.5904 24.1923L85.5492 20.1925L78.4447 20.2657L78.4859 24.2655ZM83.7687 21.3229L77.6164 34.067L81.2186 35.806L87.3709 23.0619L83.7687 21.3229ZM77.6142 34.0715C76.1896 37.0414 74.9768 39.2694 73.9738 40.7967L77.3172 42.9924C78.4627 41.2482 79.7645 38.8375 81.2208 35.8015L77.6142 34.0715ZM73.9698 40.8028C73.0537 42.2088 71.9327 43.3809 70.6012 44.332L72.9261 47.5869C74.6708 46.3407 76.1377 44.8029 77.3212 42.9863L73.9698 40.8028ZM70.5889 44.3409C69.3376 45.249 67.6006 46.0294 65.2958 46.6227L66.293 50.4964C68.9199 49.8202 71.1624 48.8672 72.9385 47.5781L70.5889 44.3409ZM65.3094 50.4999C67.3854 51.0189 69.0177 51.7296 70.2633 52.5872L72.5317 49.2926C70.7987 48.0995 68.6957 47.2233 66.2795 46.6193L65.3094 50.4999ZM70.2943 52.6082C71.5899 53.4649 72.7633 54.5979 73.8083 56.0347L77.0433 53.6821C75.7445 51.8963 74.2324 50.4169 72.5006 49.2717L70.2943 52.6082ZM73.8169 56.0465C74.9029 57.5171 76.1548 59.5896 77.5714 62.3026L81.1171 60.4513C79.6528 57.6468 78.2924 55.3736 77.0346 53.6703L73.8169 56.0465ZM77.5747 62.309L84.7891 76.0053L88.3281 74.1412L81.1138 60.4449L77.5747 62.309Z" fill="black"/>
<g clip-path="url(#clip0_735_3845)">
<path d="M106.538 87.3795C106.538 87.3795 90.835 100.897 62.6385 100.8C34.4425 100.702 18.739 87.3795 18.739 87.3795C18.739 87.3795 34.5926 110.557 62.6385 110.572C90.6839 110.589 106.538 87.3795 106.538 87.3795V87.3795Z" fill="black"/>
<path d="M23.412 80.4893C23.412 80.4893 18.9489 81.3751 15.6541 84.696C12.3556 88.015 11.4726 92.5082 11.4726 92.5082C8.1758 89.1892 8.1758 83.8083 11.4726 80.4893C14.7704 77.1702 20.1152 77.1702 23.412 80.4893Z" fill="black"/>
<path d="M101.865 80.4893C101.865 80.4893 106.328 81.3751 109.625 84.696C112.922 88.015 113.804 92.5082 113.804 92.5082C117.1 89.1892 117.1 83.8083 113.804 80.4893C110.505 77.1702 105.16 77.1702 101.865 80.4893Z" fill="black"/>
<path d="M98.2253 93.675C97.8714 93.5086 100.048 92.0778 99.9697 92.4819C99.3212 94.87 96.4426 94.1277 95.4697 95.9819C95.2525 96.4042 94.1866 95.5598 93.9697 95.9819C89.9412 102.809 83.3542 105.642 78.421 107.099C77.9963 107.245 77.5305 107.336 77.1548 107.445C72.9953 108.408 69.9308 108.29 69.8405 108.272C69.521 108.252 69.2208 108.564 69.2406 108.895C69.2456 108.98 69.2717 109.066 69.3132 109.148C69.5498 109.614 69.515 109.581 70.0368 109.603V109.603C74.4873 109.796 79.74 110.887 82.4149 114.45L86.6574 120.099C90.641 125.404 97.7243 126.912 102.457 123.358C107.189 119.804 107.758 112.636 103.733 107.276L98.1194 99.8014C96.2316 97.2874 98.1608 96.0199 98.9697 92.9819V92.9819C99.0406 92.6701 98.5791 93.8415 98.2253 93.675ZM102 108C105.527 112.697 105.696 118.349 101.5 121.5C97.3043 124.651 91.5271 123.197 88 118.5L83.2362 112.5L83.0498 112.299C81.2838 110.396 81.9287 107.369 84.237 106.18V106.18C85.9491 105.298 88.2871 105.505 89.4436 107.046L94.0841 113.225C94.2044 113.386 94.3184 113.434 94.4529 113.442C94.7999 113.462 95.1499 113.358 95.3465 113.071V113.071C95.5525 112.771 95.3761 112.345 95.1487 112.061L90.4287 106.156C89.2759 104.715 89.4045 102.743 90.7061 101.434V101.434C92.5068 99.6223 95.8729 99.5675 97.1121 101.801L97.3429 102.217C97.4474 102.405 97.5686 102.584 97.7051 102.751L102 108Z" fill="black"/>
</g>
<defs>
<clipPath id="clip0_735_3845">
<rect width="110" height="53.6744" fill="white" transform="translate(9 78)"/>
</clipPath>
</defs>
</svg>
